<svg fill="none" height="14" viewBox="0 0 14 14" width="14" xmlns="http://www.w3.org/2000/svg"><g fill="#666d74"><path clip-rule="evenodd" d="m5.36366.707078c-.39053-.390524-1.02369-.390525-1.41421 0-.39053.390522-.39053 1.023692 0 1.414212l.7071.70711-3.53553 3.53553c-.390526.39053-.390526 1.02369 0 1.41422l4.24264 4.24265c.39052.3905 1.02369.3905 1.41421 0l4.24263-4.24265c.3905-.39053.3905-1.02369 0-1.41422l-4.94973-4.94975zm3.46446 6.292892-2.75735-2.75736-2.75736 2.75736z" fill-rule="evenodd"/><path d="m13 11.5c0 .8284-.6716 1.5-1.5 1.5s-1.5-.6716-1.5-1.5c0-.3842.1444-.7346.3819-1 1.1181-1 1.1739-2 1.1739-2s.1672 1 1.0623 2c.2375.2654.3819.6158.3819 1z"/></g></svg>