<svg fill="none" height="14" viewBox="0 0 14 14" width="14" xmlns="http://www.w3.org/2000/svg"><g fill="#666d74"><path d="m6 1h11v2h-11z" transform="matrix(0 1 -1 0 7 -5)"/><path d="m9 1h2v8h-2z" transform="matrix(0 1 -1 0 10 -8)"/><path d="m8 11h2v6h-2z" transform="matrix(0 1 -1 0 19 3)"/><path clip-rule="evenodd" d="m12 11v-6h-2v7c0 .5523.4477 1 1 1h1 2v-2z" fill-rule="evenodd"/><path d="m13.5 7v2h-4.5v-2z"/><path d="m10 1h3v2h-3z" transform="matrix(0 1 -1 0 11 -9)"/><path d="m2 1h3v2h-3z" transform="matrix(0 1 -1 0 3 -1)"/></g></svg>