<svg width="14" height="14" viewBox="0 0 14 14" fill="none" xmlns="http://www.w3.org/2000/svg">
<path fill-rule="evenodd" clip-rule="evenodd" d="M12 1H4V10C4 10.8885 3.61375 11.6868 3 12.2361C2.96996 12.263 2.93938 12.2893 2.90828 12.3149C2.54614 12.6138 2.11268 12.8293 1.63726 12.9322C1.43188 12.9766 1.21867 13 1 13H2H3H4H5H9C10.6569 13 12 11.6569 12 10V1ZM6 3H10V4H6V3ZM6 6H10V7H6V6ZM10 9H6V10H10V9ZM3 5V10C3 11.1937 2.30281 12.2246 1.29342 12.7076C1.11215 12.5266 1 12.2764 1 12V5H3Z" fill="#666D74"/>
</svg>
