<?xml version="1.0" encoding="utf-8"?>
<!-- Generator: Adobe Illustrator 23.0.6, SVG Export Plug-In . SVG Version: 6.00 Build 0)  -->
<svg version="1.1" id="Layer_1" xmlns="http://www.w3.org/2000/svg" xmlns:xlink="http://www.w3.org/1999/xlink" x="0px" y="0px"
	 viewBox="0 0 14 14" style="enable-background:new 0 0 14 14;" xml:space="preserve">
<style type="text/css">
	.st0{fill:#666D74;}
</style>
<path class="st0" d="M10.6,5.5c0.8-0.5,1.5-0.9,2-1.2C13,4.1,13.1,4,13.1,4c-0.2,0-0.3,0-0.6,0.1c-0.7,0.2-1.5,0.4-2.2,0.7L8.6,0.4
	c0-0.1-0.1-0.2-0.2-0.3C8.3,0,8.1,0,8,0H7.9H5.6L0.9,12.1h2.2h0.2c0.3,0,0.6-0.1,0.7-0.3c1.4-2,3-3.5,4.5-4.7l1.5,4.4
	c0.1,0.2,0.2,0.3,0.3,0.4c0.1,0.1,0.3,0.2,0.6,0.2h2.2L10.6,5.5z M5.5,7.3l1.1-3.1C6.6,4,6.7,3.7,6.8,3.4c0-0.1,0.1-0.3,0.2-0.6
	l1,2.9C7.1,6.2,6.3,6.7,5.5,7.3z"/>
</svg>
