<svg fill="none" height="14" viewBox="0 0 14 14" width="14" xmlns="http://www.w3.org/2000/svg"><path clip-rule="evenodd" d="m7 0c-3.86599 0-7 3.13401-7 7v.25c0 3.7279 3.02208 6.75 6.75 6.75h.45c.99411 0 1.8-.8059 1.8-1.8v-.2c0-.5523-.44771-1-1-1-.55228 0-1-.4477-1-1 0-.55229.44772-1 1-1h3.75c1.2426 0 2.25-1.00736 2.25-2.25 0-3.72792-3.0221-6.75-6.75-6.75zm.5 3.25c0 .69036-.55964 1.25-1.25 1.25s-1.25-.55964-1.25-1.25.55964-1.25 1.25-1.25 1.25.55964 1.25 1.25zm3.5.5c0 .69036-.5596 1.25-1.25 1.25-.69036 0-1.25-.55964-1.25-1.25s.55964-1.25 1.25-1.25c.6904 0 1.25.55964 1.25 1.25zm-7.25 3.75c.69036 0 1.25-.55964 1.25-1.25s-.55964-1.25-1.25-1.25-1.25.55964-1.25 1.25.55964 1.25 1.25 1.25zm1.75 2.25c0 .6904-.55964 1.25-1.25 1.25s-1.25-.5596-1.25-1.25c0-.69036.55964-1.25 1.25-1.25s1.25.55964 1.25 1.25z" fill="#666d74" fill-rule="evenodd"/></svg>